<mxfile host="app.diagrams.net" modified="2023-05-13T07:58:54.063Z" agent="Mozilla/5.0 (X11; Linux x86_64) AppleWebKit/537.36 (KHTML, like Gecko) Chrome/102.0.0.0 Safari/537.36" etag="grp-w98LDzRqFDN_7uTx" version="21.3.0" type="device">
  <diagram id="IUxNrAqSZDsOru8SswO-" name="ページ1">
    <mxGraphModel dx="981" dy="518" grid="1" gridSize="10" guides="1" tooltips="1" connect="1" arrows="1" fold="1" page="1" pageScale="1" pageWidth="1654" pageHeight="1169" math="0" shadow="0">
      <root>
        <mxCell id="0" />
        <mxCell id="1" parent="0" />
        <mxCell id="mAvwQlTekbWR1lHjbwb6-5" style="edgeStyle=orthogonalEdgeStyle;rounded=0;orthogonalLoop=1;jettySize=auto;html=1;exitX=0.3;exitY=1;entryX=0.3;entryY=0;entryDx=0;entryDy=0;" edge="1" parent="1" source="mAvwQlTekbWR1lHjbwb6-1" target="mAvwQlTekbWR1lHjbwb6-2">
          <mxGeometry relative="1" as="geometry" />
        </mxCell>
        <mxCell id="mAvwQlTekbWR1lHjbwb6-3" style="edgeStyle=orthogonalEdgeStyle;rounded=0;orthogonalLoop=1;jettySize=auto;html=1;exitX=0.7;exitY=1;entryX=0.7;entryY=0;entryDx=0;entryDy=0;" parent="1" source="mAvwQlTekbWR1lHjbwb6-1" target="mAvwQlTekbWR1lHjbwb6-2" edge="1">
          <mxGeometry relative="1" as="geometry" />
        </mxCell>
        <mxCell id="mAvwQlTekbWR1lHjbwb6-4" style="edgeStyle=orthogonalEdgeStyle;rounded=0;orthogonalLoop=1;jettySize=auto;html=1;" parent="1" source="mAvwQlTekbWR1lHjbwb6-1" target="mAvwQlTekbWR1lHjbwb6-2" edge="1">
          <mxGeometry relative="1" as="geometry" />
        </mxCell>
        <mxCell id="mAvwQlTekbWR1lHjbwb6-1" value="" style="rounded=0;whiteSpace=wrap;html=1;" parent="1" vertex="1">
          <mxGeometry x="340" y="120" width="120" height="60" as="geometry" />
        </mxCell>
        <mxCell id="mAvwQlTekbWR1lHjbwb6-2" value="" style="rounded=0;whiteSpace=wrap;html=1;" parent="1" vertex="1">
          <mxGeometry x="340" y="350" width="120" height="60" as="geometry" />
        </mxCell>
      </root>
    </mxGraphModel>
  </diagram>
</mxfile>
